# xmcd CD database file
#
# Track frame offsets:
#	150
#	14914
#	26975
#	45117
#	59819
#	70619
#	86531
#	106791
#	127519
#	144160
#
# Disc length: 2118 seconds
#
# Revision: 0
# Processed by: cddbd v1.5.2PL0 Copyright (c) Steve Scherf et al.
# Submitted via: CDex 1.70beta3
#
DISCID=7b08440a
DTITLE=Don Elliott - Don Elliott Sings
DYEAR=1955
DGENRE=Jazz
TTITLE0=You're Driving Me Crazy
TTITLE1=Let's Fall In Love
TTITLE2=Speak Low
TTITLE3=Looking For A Boy
TTITLE4=I Hadn't Anyone 'Til You
TTITLE5=Ev'ry Time I Fall In Love
TTITLE6=Polka Dots And Moonbeams
TTITLE7=Ooh! Baby It Scares Me
TTITLE8=Ev'ry Time
TTITLE9=Whatever Happened To You
EXTD=YEAR: 1955
EXTT0=
EXTT1=
EXTT2=
EXTT3=
EXTT4=
EXTT5=
EXTT6=
EXTT7=
EXTT8=
EXTT9=
PLAYORDER=
